<svg width="27" height="27" viewBox="0 0 27 27" fill="none" xmlns="http://www.w3.org/2000/svg">
<g clip-path="url(#clip0_31_414)">
<path d="M23.3494 6.54188C22.8441 6.03471 22.2436 5.6323 21.5824 5.35772C20.9211 5.08314 20.2122 4.9418 19.4963 4.9418C18.7803 4.9418 18.0714 5.08314 17.4102 5.35772C16.749 5.6323 16.1485 6.03471 15.6432 6.54188L13.5 8.67938L11.3569 6.54188C10.3271 5.55901 8.95359 5.01805 7.53011 5.03466C6.10663 5.05127 4.74614 5.62412 3.73952 6.63074C2.7329 7.63736 2.16004 8.99785 2.14344 10.4213C2.12683 11.8448 2.66779 13.2183 3.65065 14.2481L13.5 24.0975L21.2063 16.3913L23.3494 14.2481C24.371 13.226 24.9448 11.8401 24.9448 10.395C24.9448 8.94992 24.371 7.56398 23.3494 6.54188Z" stroke="black" stroke-width="2" stroke-linecap="round" stroke-linejoin="round"/>
</g>
<defs>
<clipPath id="clip0_31_414">
<rect width="27" height="27" fill="white"/>
</clipPath>
</defs>
</svg>
