<svg width="23" height="23" viewBox="0 0 23 23" fill="none" xmlns="http://www.w3.org/2000/svg">
<path d="M7.44032 20.6931C7.44032 20.6931 7.47747 20.6559 7.52289 20.6105L16.2711 11.8623C16.3165 11.8169 16.3573 11.7761 16.3618 11.7716C16.3662 11.7672 16.407 11.7264 16.4524 11.6809L21.0876 7.04581C21.0884 7.045 21.0884 7.04366 21.0876 7.0428L15.914 1.86929C15.9132 1.86848 15.9118 1.86848 15.911 1.86929L11.2758 6.50442C11.2304 6.54983 11.1896 6.59066 11.1851 6.59511C11.1807 6.59956 11.1399 6.64039 11.0944 6.68581L2.26411 15.5162C2.26384 15.5165 2.26366 15.5167 2.26357 15.5171L9.44699e-05 22.9541C-0.00039967 22.9557 0.00112767 22.9573 0.00274486 22.9568L7.32855 20.7272C7.39001 20.7084 7.44032 20.6931 7.44032 20.6931ZM1.65016 21.3041L2.78035 17.5905C2.7808 17.589 2.78273 17.5885 2.78386 17.5896L5.36718 20.173C5.3683 20.1741 5.36781 20.176 5.36628 20.1765L1.65277 21.3067C1.65115 21.3072 1.64962 21.3057 1.65016 21.3041Z" fill="#4B4B4B"/>
<path d="M22.5687 4.66973C23.1438 4.09455 23.1438 3.15343 22.5687 2.57826L20.4218 0.431351C19.8466 -0.143784 18.9055 -0.143784 18.3303 0.431351L17.2584 1.50328C17.2576 1.50408 17.2576 1.50543 17.2584 1.50629L21.4937 5.74161C21.4945 5.74241 21.4959 5.74241 21.4967 5.74161L22.5687 4.66973Z" fill="#4B4B4B"/>
</svg>
